<svg width="55" height="36" viewBox="0 0 55 36" fill="none" xmlns="http://www.w3.org/2000/svg">
<rect x="0.921875" y="0.75" width="49" height="30" rx="3.5" stroke="black"/>
<rect x="0.421875" y="6.25" width="50" height="4" fill="black"/>
<line x1="5.42188" y1="13.75" x2="20.4219" y2="13.75" stroke="black"/>
<circle cx="7.92188" cy="26.75" r="0.5" fill="black"/>
<circle cx="17.9219" cy="26.75" r="0.5" fill="black"/>
<circle cx="27.9219" cy="26.75" r="0.5" fill="black"/>
<circle cx="37.9219" cy="26.75" r="0.5" fill="black"/>
<circle cx="9.92188" cy="26.75" r="0.5" fill="black"/>
<circle cx="19.9219" cy="26.75" r="0.5" fill="black"/>
<circle cx="29.9219" cy="26.75" r="0.5" fill="black"/>
<circle cx="39.9219" cy="26.75" r="0.5" fill="black"/>
<circle cx="11.9219" cy="26.75" r="0.5" fill="black"/>
<circle cx="21.9219" cy="26.75" r="0.5" fill="black"/>
<circle cx="31.9219" cy="26.75" r="0.5" fill="black"/>
<circle cx="41.9219" cy="26.75" r="0.5" fill="black"/>
<circle cx="13.9219" cy="26.75" r="0.5" fill="black"/>
<circle cx="23.9219" cy="26.75" r="0.5" fill="black"/>
<circle cx="33.9219" cy="26.75" r="0.5" fill="black"/>
<circle cx="43.9219" cy="26.75" r="0.5" fill="black"/>
<path fill-rule="evenodd" clip-rule="evenodd" d="M53.3043 28.1996H52.9821C52.8858 26.9438 52.4261 25.9481 51.7411 25.2431C50.9713 24.4508 49.945 24.0555 48.922 24.0555C47.8991 24.0555 46.8728 24.4508 46.103 25.2431C45.418 25.9481 44.9583 26.9438 44.862 28.1996H44.5397C43.8199 28.1996 43.2363 28.7832 43.2363 29.5031V31.822C43.2363 33.8226 44.8581 35.4444 46.8587 35.4444H50.9854C52.986 35.4444 54.6078 33.8226 54.6078 31.822V29.5031C54.6078 28.7832 54.0242 28.1996 53.3043 28.1996ZM46.8202 25.94C46.3293 26.4452 45.9578 27.189 45.8654 28.1996H51.9787C51.8863 27.189 51.5148 26.4452 51.0239 25.94C50.4517 25.351 49.6885 25.0555 48.922 25.0555C48.1556 25.0555 47.3924 25.351 46.8202 25.94Z" fill="black"/>
</svg>
