<svg width="54" height="59" viewBox="0 0 54 59" fill="none" xmlns="http://www.w3.org/2000/svg">
<path d="M37.2726 26.3771L46.077 17.5728M37.2726 26.3771H7.9248M37.2726 26.3771V44.5728M46.077 17.5728H16.7292L7.9248 26.3771M46.077 17.5728V35.7684L37.2726 44.5728M37.2726 44.5728H7.9248V26.3771" stroke="black" stroke-width="3"/>
<path d="M40.4898 53.522C40.7202 53.9054 40.5967 54.4042 40.2065 54.623C36.1698 56.8866 31.6145 58.0768 26.9774 58.0727C22.07 58.0685 17.2566 56.7268 13.0546 54.192C8.85255 51.6571 5.42082 48.025 3.12829 43.686C0.835763 39.3471 -0.230861 34.4653 0.0430757 29.5656C0.317013 24.6658 1.92115 19.9334 4.68305 15.877C7.44495 11.8206 11.2602 8.59367 15.7186 6.54304C20.177 4.4924 25.1099 3.69564 29.9872 4.2384C34.5959 4.75127 38.9901 6.44185 42.7493 9.14127C43.1127 9.4022 43.1799 9.91165 42.9081 10.267V10.267C42.6364 10.6224 42.1288 10.6891 41.7649 10.4289C38.24 7.90789 34.124 6.32877 29.808 5.84847C25.2234 5.33827 20.5864 6.08722 16.3955 8.01482C12.2046 9.94242 8.61831 12.9758 6.02213 16.7888C3.42594 20.6018 1.91805 25.0503 1.66055 29.656C1.40305 34.2618 2.40568 38.8506 4.56065 42.9292C6.71563 47.0079 9.94145 50.4221 13.8914 52.8048C17.8413 55.1876 22.3659 56.4487 26.9788 56.4527C31.3215 56.4565 35.5878 55.3461 39.3718 53.2337C39.7624 53.0157 40.2594 53.1385 40.4898 53.522V53.522Z" fill="black"/>
<path d="M43.2222 11.4027C43.7691 11.3259 44.1501 10.8202 44.0733 10.2733L42.8207 1.36088C42.7439 0.813975 42.2382 0.432928 41.6913 0.509791C41.1444 0.586654 40.7633 1.09232 40.8402 1.63923L41.9536 9.56137L34.0314 10.6748C33.4845 10.7516 33.1035 11.2573 33.1803 11.8042C33.2572 12.3511 33.7629 12.7321 34.3098 12.6553L43.2222 11.4027ZM42.2468 11.0345L42.4812 11.2111L43.6848 9.61382L43.4504 9.43721L42.2468 11.0345Z" fill="black"/>
<circle cx="42.8487" cy="51.9097" r="0.586956" fill="black"/>
<circle cx="44.7566" cy="50.2956" r="0.440218" fill="black"/>
<circle cx="46.3706" cy="48.6814" r="0.293478" fill="black"/>
<circle cx="47.6917" cy="47.0673" r="0.14674" fill="black"/>
</svg>
