<svg width="89" height="89" viewBox="0 0 89 89" fill="none" xmlns="http://www.w3.org/2000/svg">
<path d="M61.3155 36.6929L75.7995 22.209M61.3155 36.6929H13.0356M61.3155 36.6929V66.6265M75.7995 22.209H27.5196L13.0356 36.6929M75.7995 22.209V52.1425L61.3155 66.6265M61.3155 66.6265H13.0356V36.6929" stroke="black" stroke-width="3"/>
<path d="M66.6079 81.3485C66.9869 81.9793 66.7837 82.7999 66.1418 83.1598C59.501 86.8836 52.0072 88.8416 44.3787 88.8349C36.3056 88.8279 28.3871 86.6207 21.4744 82.4507C14.5616 78.2807 8.91613 72.3055 5.14472 65.1675C1.3733 58.0295 -0.381394 49.9985 0.069257 41.938C0.519909 33.8775 3.15886 26.0923 7.70244 19.4191C12.246 12.746 18.5224 7.43732 25.8569 4.06384C33.1913 0.690356 41.3065 -0.620388 49.3301 0.272508C56.9118 1.11623 64.1407 3.89738 70.325 8.33818C70.9227 8.76743 71.0332 9.60552 70.5862 10.1902C70.1392 10.7748 69.3041 10.8845 68.7055 10.4564C62.9067 6.30914 56.1356 3.71135 49.0354 2.92121C41.4932 2.08189 33.8649 3.31399 26.9705 6.48506C20.0761 9.65613 14.1763 14.6463 9.90535 20.919C5.63438 27.1918 3.15376 34.5099 2.73015 42.0868C2.30654 49.6637 3.95595 57.2127 7.50108 63.9225C11.0462 70.6322 16.353 76.2489 22.851 80.1687C29.3489 84.0885 36.7923 86.1633 44.381 86.1699C51.5251 86.1761 58.5436 84.3493 64.7686 80.8743C65.4112 80.5156 66.2288 80.7177 66.6079 81.3485Z" fill="black"/>
<path d="M71.0133 11.4195C71.5602 11.3426 71.9412 10.837 71.8644 10.2901L70.6118 1.37764C70.535 0.830732 70.0293 0.449684 69.4824 0.526547C68.9355 0.60341 68.5544 1.10908 68.6313 1.65599L69.7447 9.57813L61.8225 10.6915C61.2756 10.7684 60.8946 11.274 60.9714 11.821C61.0483 12.3679 61.554 12.7489 62.1009 12.6721L71.0133 11.4195ZM69.8867 10.9373L70.2723 11.2279L71.4759 9.63059L71.0903 9.34004L69.8867 10.9373Z" fill="black"/>
<circle cx="70.4885" cy="78.6961" r="0.965597" fill="black"/>
<circle cx="73.6268" cy="76.0406" r="0.724198" fill="black"/>
<circle cx="76.2821" cy="73.3856" r="0.482799" fill="black"/>
<circle cx="78.4548" cy="70.7302" r="0.241399" fill="black"/>
</svg>
