<svg width="163" height="56" viewBox="0 0 163 56" fill="none" xmlns="http://www.w3.org/2000/svg">
<path d="M68.0629 24.1337C70.9947 29.826 59.0592 6 59.0592 6C59.0592 6 51.2431 21.8862 47.761 28.6421C44.2788 35.3979 65.1312 18.4414 68.0629 24.1337Z" fill="white" stroke="black" stroke-width="3"/>
<path d="M39 46L47.7659 28.6188C44.2326 35.6247 65.0625 18.4575 67.9571 24.1264C70.8517 29.7954 79 46 79 46H39Z" fill="#243015" stroke="black" stroke-width="3"/>
<path d="M24.6562 40.3203V44H7.59375V40.3203H24.6562ZM8.48438 9.875V44H3.96094V9.875H8.48438Z" fill="black"/>
<path d="M114.148 35.375C114.148 34.5781 114.023 33.875 113.773 33.2656C113.539 32.6406 113.117 32.0781 112.508 31.5781C111.914 31.0781 111.086 30.6016 110.023 30.1484C108.977 29.6953 107.648 29.2344 106.039 28.7656C104.352 28.2656 102.828 27.7109 101.469 27.1016C100.109 26.4766 98.9453 25.7656 97.9766 24.9688C97.0078 24.1719 96.2656 23.2578 95.75 22.2266C95.2344 21.1953 94.9766 20.0156 94.9766 18.6875C94.9766 17.3594 95.25 16.1328 95.7969 15.0078C96.3438 13.8828 97.125 12.9062 98.1406 12.0781C99.1719 11.2344 100.398 10.5781 101.82 10.1094C103.242 9.64062 104.828 9.40625 106.578 9.40625C109.141 9.40625 111.312 9.89844 113.094 10.8828C114.891 11.8516 116.258 13.125 117.195 14.7031C118.133 16.2656 118.602 17.9375 118.602 19.7188H114.102C114.102 18.4375 113.828 17.3047 113.281 16.3203C112.734 15.3203 111.906 14.5391 110.797 13.9766C109.688 13.3984 108.281 13.1094 106.578 13.1094C104.969 13.1094 103.641 13.3516 102.594 13.8359C101.547 14.3203 100.766 14.9766 100.25 15.8047C99.75 16.6328 99.5 17.5781 99.5 18.6406C99.5 19.3594 99.6484 20.0156 99.9453 20.6094C100.258 21.1875 100.734 21.7266 101.375 22.2266C102.031 22.7266 102.859 23.1875 103.859 23.6094C104.875 24.0312 106.086 24.4375 107.492 24.8281C109.43 25.375 111.102 25.9844 112.508 26.6562C113.914 27.3281 115.07 28.0859 115.977 28.9297C116.898 29.7578 117.578 30.7031 118.016 31.7656C118.469 32.8125 118.695 34 118.695 35.3281C118.695 36.7188 118.414 37.9766 117.852 39.1016C117.289 40.2266 116.484 41.1875 115.438 41.9844C114.391 42.7812 113.133 43.3984 111.664 43.8359C110.211 44.2578 108.586 44.4688 106.789 44.4688C105.211 44.4688 103.656 44.25 102.125 43.8125C100.609 43.375 99.2266 42.7188 97.9766 41.8438C96.7422 40.9688 95.75 39.8906 95 38.6094C94.2656 37.3125 93.8984 35.8125 93.8984 34.1094H98.3984C98.3984 35.2812 98.625 36.2891 99.0781 37.1328C99.5312 37.9609 100.148 38.6484 100.93 39.1953C101.727 39.7422 102.625 40.1484 103.625 40.4141C104.641 40.6641 105.695 40.7891 106.789 40.7891C108.367 40.7891 109.703 40.5703 110.797 40.1328C111.891 39.6953 112.719 39.0703 113.281 38.2578C113.859 37.4453 114.148 36.4844 114.148 35.375Z" fill="black"/>
<path d="M150.57 9.875V44H146.117V9.875H150.57ZM161.539 9.875V13.5781H135.172V9.875H161.539Z" fill="black"/>
</svg>
