<svg width="91" height="30" viewBox="0 0 91 30" fill="none" xmlns="http://www.w3.org/2000/svg">
<path d="M40.0333 13.0583C41.9041 16.5296 34.2879 2 34.2879 2C34.2879 2 29.3005 11.6878 27.0785 15.8076C24.8565 19.9275 38.1625 9.58705 40.0333 13.0583Z" fill="white" stroke="black"/>
<path d="M21.4883 26.3929L27.0819 15.7934C24.8272 20.0658 38.1189 9.59685 39.966 13.0539C41.813 16.5109 47.0125 26.3929 47.0125 26.3929H21.4883Z" fill="#243015" stroke="black"/>
<path d="M83.6846 5.22656V23H81.3652V5.22656H83.6846ZM89.3975 5.22656V7.15527H75.6646V5.22656H89.3975Z" fill="black"/>
<path d="M64.6265 18.5078C64.6265 18.0928 64.5614 17.7266 64.4312 17.4092C64.3091 17.0837 64.0894 16.7907 63.772 16.5303C63.4627 16.2699 63.0314 16.0216 62.478 15.7856C61.9328 15.5496 61.241 15.3096 60.4028 15.0654C59.5239 14.805 58.7305 14.5161 58.0225 14.1987C57.3145 13.8732 56.7082 13.5029 56.2036 13.0879C55.6991 12.6729 55.3125 12.1968 55.0439 11.6597C54.7754 11.1226 54.6411 10.5081 54.6411 9.81641C54.6411 9.12467 54.7835 8.48584 55.0684 7.8999C55.3532 7.31396 55.7601 6.80534 56.2891 6.37402C56.8262 5.93457 57.465 5.59277 58.2056 5.34863C58.9461 5.10449 59.7721 4.98242 60.6836 4.98242C62.0182 4.98242 63.1494 5.23877 64.0771 5.75146C65.013 6.25602 65.7251 6.91927 66.2134 7.74121C66.7017 8.55501 66.9458 9.42578 66.9458 10.3535H64.6021C64.6021 9.6862 64.4596 9.09619 64.1748 8.5835C63.89 8.06266 63.4587 7.65576 62.8809 7.36279C62.3031 7.06169 61.5706 6.91113 60.6836 6.91113C59.8454 6.91113 59.1536 7.03727 58.6084 7.28955C58.0632 7.54183 57.6562 7.88363 57.3877 8.31494C57.1273 8.74626 56.9971 9.23861 56.9971 9.79199C56.9971 10.1663 57.0744 10.5081 57.229 10.8174C57.3918 11.1185 57.64 11.3993 57.9736 11.6597C58.3154 11.9201 58.7467 12.1602 59.2676 12.3799C59.7965 12.5996 60.4272 12.8112 61.1597 13.0146C62.1688 13.2995 63.0396 13.6169 63.772 13.9668C64.5044 14.3167 65.1066 14.7114 65.5786 15.1509C66.0588 15.5822 66.4128 16.0745 66.6406 16.6279C66.8766 17.1732 66.9946 17.7917 66.9946 18.4834C66.9946 19.2077 66.8481 19.8628 66.5552 20.4487C66.2622 21.0347 65.8431 21.5352 65.2979 21.9502C64.7526 22.3652 64.0975 22.6867 63.3325 22.9146C62.5757 23.1343 61.7293 23.2441 60.7935 23.2441C59.9715 23.2441 59.1618 23.1302 58.3643 22.9023C57.5749 22.6745 56.8547 22.3327 56.2036 21.877C55.5607 21.4212 55.0439 20.8597 54.6533 20.1924C54.2708 19.5169 54.0796 18.7357 54.0796 17.8486H56.4233C56.4233 18.459 56.5413 18.9839 56.7773 19.4233C57.0133 19.8547 57.3348 20.2127 57.7417 20.4976C58.1567 20.7824 58.6247 20.994 59.1455 21.1323C59.6745 21.2625 60.2238 21.3276 60.7935 21.3276C61.6154 21.3276 62.3112 21.2137 62.8809 20.9858C63.4505 20.758 63.8818 20.4325 64.1748 20.0093C64.4759 19.5861 64.6265 19.0856 64.6265 18.5078Z" fill="black"/>
<path d="M14.0918 21.0835V23H5.20508V21.0835H14.0918ZM5.66895 5.22656V23H3.31299V5.22656H5.66895Z" fill="black"/>
</svg>
