<svg width="130" height="117" viewBox="0 0 130 117" fill="none" xmlns="http://www.w3.org/2000/svg">
<g filter="url(#filter0_d_155_6784)">
<path d="M109.734 47.8683C115.656 72.7759 100.261 97.7726 75.3485 103.7C50.4357 109.628 25.439 94.2412 19.5167 69.3336C13.5944 44.426 28.9893 19.4292 53.9021 13.5017C78.8149 7.57424 103.812 22.9607 109.734 47.8683ZM36.2069 65.3625C39.9379 81.0543 55.6859 90.7477 71.3809 87.0134C87.076 83.2791 96.7748 67.5311 93.0437 51.8393C89.3127 36.1476 73.5647 26.4541 57.8697 30.1884C42.1746 33.9227 32.4758 49.6707 36.2069 65.3625Z" fill="#5B3324"/>
</g>
<rect width="109.937" height="17.9058" transform="matrix(0.973676 -0.227935 0.233082 0.972464 9.39062 61.8232)" fill="#5B3324"/>
<path d="M34.4224 70.5714C33.6592 70.7506 32.9255 70.7935 32.2214 70.7C31.5173 70.6065 30.871 70.3939 30.2824 70.0624C29.7007 69.7196 29.206 69.2797 28.7984 68.7427C28.3907 68.2056 28.1006 67.5787 27.9281 66.8618C27.7555 66.145 27.7289 65.4561 27.8483 64.7954C27.9676 64.1346 28.21 63.5264 28.5755 62.9708C28.9479 62.404 29.4271 61.9224 30.0133 61.5259C30.5994 61.1294 31.2741 60.8415 32.0373 60.6623C32.8097 60.481 33.5433 60.4381 34.2383 60.5338C34.9424 60.6273 35.5853 60.8454 36.167 61.1882C36.7465 61.5219 37.2401 61.9572 37.6477 62.4943C38.0645 63.0292 38.3591 63.655 38.5317 64.3719C38.7042 65.0888 38.7274 65.7832 38.6011 66.4552C38.4818 67.116 38.2394 67.7242 37.8739 68.2797C37.5084 68.8353 37.0326 69.3114 36.4465 69.7079C35.8694 70.1022 35.1947 70.3901 34.4224 70.5714ZM33.8851 68.3392C34.2486 68.2538 34.5695 68.1113 34.8478 67.9118C35.1353 67.71 35.3642 67.4646 35.5345 67.1753C35.7118 66.8748 35.8236 66.5418 35.87 66.1761C35.9255 65.8084 35.9041 65.4203 35.8058 65.012C35.7053 64.5946 35.5476 64.2385 35.3327 63.9439C35.1247 63.638 34.8742 63.3948 34.5811 63.2144C34.295 63.0227 33.9777 62.9007 33.6291 62.8483C33.2896 62.7938 32.9381 62.8092 32.5746 62.8946C32.2112 62.9799 31.8857 63.1235 31.5983 63.3252C31.32 63.5248 31.0921 63.7748 30.9149 64.0753C30.7445 64.3645 30.6316 64.6931 30.5761 65.0608C30.5275 65.4173 30.5535 65.8043 30.6539 66.2217C30.7522 66.6301 30.9054 66.9872 31.1134 67.2931C31.3305 67.5968 31.5821 67.8445 31.8683 68.0362C32.1613 68.2166 32.4775 68.3341 32.8171 68.3886C33.1657 68.441 33.5217 68.4245 33.8851 68.3392ZM45.5398 67.9608C44.1315 68.2916 42.9392 68.1641 41.9631 67.5784C40.9869 66.9927 40.3285 65.992 39.9878 64.5765L38.7166 59.2952L41.4152 58.6616L42.6667 63.8611C42.8633 64.6778 43.1632 65.2258 43.5664 65.505C43.9786 65.7821 44.4665 65.8545 45.0298 65.7222C45.5931 65.5899 45.9912 65.3095 46.2241 64.8809C46.4569 64.4523 46.475 63.8297 46.2785 63.013L45.027 57.8135L47.6847 57.1894L48.9558 62.4706C49.2966 63.8862 49.1645 65.0724 48.5596 66.0294C47.9548 66.9863 46.9482 67.6301 45.5398 67.9608ZM53.6905 65.8456L51.9115 58.4546L48.9812 59.1427L48.4668 57.0057L57.0124 54.9991L57.5268 57.136L54.6101 57.8209L56.3891 65.2119L53.6905 65.8456ZM60.3111 64.291L58.0178 54.763L62.529 53.7036C63.583 53.4561 64.5568 53.4336 65.4503 53.6361C66.3438 53.8385 67.0983 54.2413 67.7139 54.8446C68.3386 55.4457 68.7689 56.2363 69.0048 57.2163C69.2385 58.1872 69.2144 59.0845 68.9327 59.908C68.6578 60.7204 68.1675 61.4155 67.4619 61.9935C66.7562 62.5714 65.8764 62.9841 64.8224 63.2316L60.3111 64.291ZM62.4921 61.5067L64.1957 61.1066C64.7409 60.9786 65.1893 60.7678 65.5411 60.4743C65.8997 60.1696 66.1457 59.7955 66.2789 59.352C66.41 58.8993 66.41 58.4008 66.2789 57.8564C66.1457 57.3028 65.9185 56.8576 65.5974 56.5208C65.2764 56.1839 64.8874 55.9637 64.4304 55.8601C63.9804 55.7452 63.4828 55.7518 62.9377 55.8798L61.234 56.2799L62.4921 61.5067ZM76.4282 60.7077C75.665 60.8869 74.9313 60.9298 74.2272 60.8363C73.5231 60.7427 72.8768 60.5302 72.2882 60.1986C71.7065 59.8559 71.2118 59.416 70.8042 58.8789C70.3965 58.3419 70.1064 57.715 69.9339 56.9981C69.7613 56.2812 69.7347 55.5924 69.8541 54.9316C69.9734 54.2709 70.2158 53.6627 70.5813 53.1071C70.9537 52.5403 71.4329 52.0587 72.0191 51.6622C72.6052 51.2657 73.2799 50.9778 74.0431 50.7986C74.8155 50.6172 75.5491 50.5744 76.2441 50.67C76.9482 50.7636 77.5911 50.9817 78.1728 51.3245C78.7523 51.6582 79.2459 52.0935 79.6535 52.6305C80.0703 53.1654 80.3649 53.7913 80.5374 54.5082C80.71 55.2251 80.7331 55.9195 80.6069 56.5915C80.4876 57.2522 80.2451 57.8604 79.8797 58.416C79.5142 58.9716 79.0384 59.4476 78.4523 59.8441C77.8752 60.2385 77.2005 60.5263 76.4282 60.7077ZM75.8909 58.4754C76.2544 58.3901 76.5753 58.2476 76.8536 58.048C77.141 57.8463 77.3699 57.6008 77.5403 57.3116C77.7176 57.0111 77.8294 56.678 77.8758 56.3124C77.9313 55.9447 77.9099 55.5566 77.8116 55.1483C77.7111 54.7309 77.5534 54.3748 77.3385 54.0801C77.1305 53.7743 76.88 53.5311 76.5869 53.3506C76.3008 53.159 75.9835 53.037 75.6349 52.9846C75.2954 52.9301 74.9439 52.9455 74.5804 53.0309C74.217 53.1162 73.8915 53.2597 73.6041 53.4615C73.3257 53.661 73.0979 53.9111 72.9207 54.2115C72.7503 54.5008 72.6374 54.8293 72.5819 55.1971C72.5333 55.5536 72.5593 55.9406 72.6597 56.358C72.758 56.7664 72.9112 57.1235 73.1192 57.4294C73.3363 57.7331 73.5879 57.9808 73.874 58.1725C74.1671 58.3529 74.4833 58.4704 74.8228 58.5249C75.1714 58.5773 75.5275 58.5608 75.8909 58.4754ZM87.9545 58.0011C87.1913 58.1803 86.4576 58.2232 85.7535 58.1297C85.0494 58.0361 84.4031 57.8236 83.8145 57.492C83.2328 57.1493 82.7381 56.7094 82.3305 56.1724C81.9228 55.6353 81.6327 55.0084 81.4602 54.2915C81.2876 53.5746 81.261 52.8858 81.3804 52.225C81.4997 51.5643 81.7421 50.9561 82.1076 50.4005C82.48 49.8337 82.9592 49.3521 83.5454 48.9556C84.1315 48.5591 84.8062 48.2712 85.5694 48.092C86.3418 47.9107 87.0754 47.8678 87.7704 47.9635C88.4745 48.057 89.1174 48.2751 89.6991 48.6179C90.2786 48.9516 90.7722 49.3869 91.1798 49.924C91.5966 50.4589 91.8912 51.0847 92.0638 51.8016C92.2363 52.5185 92.2594 53.2129 92.1332 53.8849C92.0139 54.5457 91.7715 55.1538 91.406 55.7094C91.0405 56.265 90.5647 56.7411 89.9786 57.1375C89.4015 57.5319 88.7268 57.8198 87.9545 58.0011ZM87.4172 55.7688C87.7807 55.6835 88.1016 55.541 88.3799 55.3415C88.6673 55.1397 88.8963 54.8942 89.0666 54.605C89.2439 54.3045 89.3557 53.9714 89.4021 53.6058C89.4576 53.2381 89.4362 52.85 89.3379 52.4417C89.2374 52.0243 89.0797 51.6682 88.8648 51.3736C88.6568 51.0677 88.4063 50.8245 88.1132 50.6441C87.8271 50.4524 87.5098 50.3304 87.1612 50.278C86.8217 50.2235 86.4702 50.2389 86.1067 50.3243C85.7433 50.4096 85.4178 50.5532 85.1304 50.7549C84.8521 50.9545 84.6242 51.2045 84.447 51.505C84.2766 51.7942 84.1637 52.1227 84.1082 52.4905C84.0596 52.847 84.0856 53.234 84.186 53.6514C84.2843 54.0598 84.4375 54.4169 84.6455 54.7228C84.8626 55.0265 85.1142 55.2742 85.4003 55.4659C85.6934 55.6463 86.0096 55.7638 86.3492 55.8183C86.6977 55.8707 87.0538 55.8542 87.4172 55.7688ZM94.6238 56.2337L92.3305 46.7057L96.6918 45.6816C97.5641 45.4768 98.3476 45.4414 99.0422 45.5755C99.746 45.7074 100.335 46.0006 100.809 46.4549C101.281 46.9001 101.604 47.4857 101.779 48.2116C101.952 48.9285 101.929 49.5906 101.71 50.198C101.489 50.7963 101.095 51.3108 100.526 51.7414C99.9649 52.1609 99.2481 52.473 98.3758 52.6779L95.5137 53.3499L96.4411 51.9386L97.3224 55.6L94.6238 56.2337ZM100.525 54.8479L97.3184 51.9339L100.194 51.2586L103.415 54.1694L100.525 54.8479ZM96.5099 52.2244L95.0124 51.2674L97.711 50.6337C98.2743 50.5014 98.6628 50.2808 98.8764 49.9718C99.0991 49.6606 99.1581 49.2873 99.0532 48.8517C98.9462 48.4071 98.7224 48.0953 98.3817 47.9165C98.0502 47.7355 97.6027 47.7111 97.0394 47.8434L94.3408 48.4771L95.242 46.9568L96.5099 52.2244Z" fill="white"/>
<path d="M30.5238 50.6365C30.3263 51.2779 30.0411 51.8372 29.6679 52.3145C29.2947 52.7917 28.8586 53.1738 28.3596 53.4608C27.8553 53.7377 27.3169 53.9075 26.7444 53.9704C26.1719 54.0332 25.5838 53.9697 24.9801 53.7798C24.3764 53.59 23.8564 53.305 23.4202 52.925C22.984 52.5449 22.6398 52.0975 22.3875 51.5827C22.13 51.0578 21.9815 50.4919 21.942 49.8849C21.9025 49.2778 21.9815 48.6536 22.1789 48.0122C22.3786 47.3632 22.6639 46.8038 23.0348 46.3342C23.4079 45.857 23.8429 45.4787 24.3395 45.1994C24.8362 44.9201 25.3746 44.7502 25.9547 44.6898C26.5296 44.6193 27.1189 44.679 27.7226 44.8688C28.3263 45.0587 28.8489 45.3487 29.2904 45.7387C29.7266 46.1188 30.0708 46.5662 30.3231 47.081C30.5753 47.5959 30.7212 48.1568 30.7606 48.7638C30.8025 49.3632 30.7235 49.9874 30.5238 50.6365ZM33.1077 48.5723C33.002 48.9159 32.8651 49.2246 32.697 49.4984C32.5366 49.7745 32.3315 50.0325 32.0817 50.2722C31.8342 50.5042 31.5248 50.7335 31.1533 50.9601C30.7842 51.179 30.3384 51.4157 29.8159 51.6701L29.9495 49.1117C30.291 49.0097 30.5655 48.9076 30.773 48.8054C30.9805 48.7031 31.1409 48.5903 31.2544 48.4668C31.3701 48.3357 31.4539 48.1862 31.5056 48.0182C31.6419 47.5753 31.5792 47.1118 31.3176 46.6275L32.7899 46.0102C33.2908 46.779 33.3968 47.6331 33.1077 48.5723ZM28.6439 50.0453C28.7379 49.7398 28.7713 49.4405 28.7442 49.1472C28.7195 48.8463 28.6372 48.5692 28.4972 48.3158C28.352 48.0524 28.1545 47.8228 27.9046 47.627C27.6571 47.4235 27.3614 47.2677 27.0176 47.1596C26.666 47.049 26.3351 47.0078 26.0247 47.0358C25.7091 47.0538 25.4214 47.1308 25.1616 47.2669C24.8965 47.3929 24.6693 47.5727 24.4801 47.8063C24.2932 48.0323 24.1528 48.298 24.0588 48.6034C23.9648 48.9088 23.9301 49.212 23.9549 49.5129C23.9819 49.8061 24.0681 50.0845 24.2133 50.3479C24.3533 50.6013 24.547 50.8297 24.7945 51.0331C25.0367 51.2266 25.3335 51.3785 25.6851 51.4891C26.029 51.5972 26.3587 51.6423 26.6744 51.6243C26.9924 51.5987 27.2839 51.5229 27.549 51.3969C27.8088 51.2608 28.0321 51.0798 28.219 50.8538C28.4082 50.6202 28.5499 50.3507 28.6439 50.0453Z" fill="white"/>
<path d="M37.8704 37.2973C37.5155 37.6873 37.1191 37.9682 36.6811 38.1401C36.2485 38.3061 35.7896 38.3283 35.3045 38.2067C34.8189 38.0738 34.3259 37.7764 33.8255 37.3146L31.1497 34.8451L32.682 33.1611L35.084 35.378C35.4549 35.7203 35.7816 35.8968 36.0642 35.9076C36.3522 35.9125 36.6118 35.7879 36.843 35.5339C36.9935 35.3684 37.0924 35.1824 37.1395 34.9759C37.1866 34.7694 37.1654 34.5487 37.0758 34.3138C36.9803 34.0735 36.8001 33.8311 36.5352 33.5866L34.2303 31.4594L35.7626 29.7754L40.5489 34.1928L39.0893 35.797L37.7381 34.5501L38.4001 34.5903C38.6028 35.0818 38.65 35.5656 38.5417 36.0417C38.4275 36.5125 38.2037 36.931 37.8704 37.2973Z" fill="white"/>
<path d="M50.7566 27.7049L50.2536 26.6014L49.9875 26.3936L49.0611 24.3615C48.9117 24.0338 48.6955 23.8294 48.4126 23.7484C48.1336 23.6568 47.7763 23.7114 47.3407 23.9125C47.0576 24.0431 46.7924 24.2228 46.5452 24.4515C46.2947 24.6729 46.1043 24.9106 45.9741 25.1647L44.6347 24.0769C44.869 23.7043 45.1919 23.3525 45.6034 23.0216C46.0188 22.68 46.4588 22.402 46.9234 22.1876C47.8817 21.7454 48.7234 21.6258 49.4486 21.8289C50.1778 22.0213 50.7565 22.5873 51.1849 23.5269L52.684 26.8154L50.7566 27.7049ZM49.0592 28.6072C48.5873 28.825 48.1515 28.9291 47.7518 28.9197C47.3521 28.9102 47.002 28.8073 46.7016 28.6109C46.4085 28.4112 46.1839 28.1402 46.0278 27.7978C45.8618 27.4337 45.8098 27.0786 45.8717 26.7326C45.9376 26.376 46.1314 26.0398 46.4531 25.7238C46.7714 25.4006 47.2355 25.0983 47.8453 24.8168L49.2391 24.1736L49.7321 25.2552L48.6215 25.7678C48.2875 25.9219 48.0765 26.0854 47.9884 26.2583C47.9075 26.4279 47.9086 26.6037 47.9916 26.7858C48.0746 26.9679 48.21 27.0817 48.3977 27.1273C48.5854 27.1729 48.7991 27.1404 49.0386 27.0299C49.2637 26.926 49.442 26.7776 49.5737 26.5846C49.7093 26.3809 49.7676 26.1425 49.7484 25.8692L50.3802 26.5033C50.4572 26.9615 50.3842 27.3698 50.1611 27.7285C49.9419 28.0765 49.5746 28.3694 49.0592 28.6072Z" fill="white"/>
<path d="M60.3085 24.9517L59.4602 16.092L61.731 15.8764L62.5792 24.7361L60.3085 24.9517Z" fill="white"/>
<path d="M70.1918 24.9143L71.2589 18.5057L73.5141 18.857L72.4471 25.2656L70.1918 24.9143ZM72.5046 17.9719C72.0932 17.9078 71.7798 17.7418 71.5647 17.4737C71.3495 17.2057 71.2702 16.9022 71.3266 16.5632C71.383 16.2243 71.5569 15.9602 71.8482 15.7711C72.1395 15.5819 72.4908 15.5194 72.9023 15.5835C73.3138 15.6476 73.6278 15.8097 73.8443 16.0698C74.062 16.3221 74.1427 16.6177 74.0863 16.9567C74.0272 17.3114 73.8514 17.5873 73.5588 17.7843C73.2754 17.9747 72.924 18.0372 72.5046 17.9719Z" fill="white"/>
<path d="M82.3994 28.9085C81.6523 28.5394 81.1628 28.0703 80.9307 27.5013C80.7022 26.9252 80.7762 26.2668 81.1525 25.5262L83.6766 20.5592L85.7238 21.5707L83.2106 26.5163C83.1056 26.7228 83.0799 26.915 83.1333 27.0928C83.1903 27.2636 83.3086 27.3933 83.4882 27.482C83.7324 27.6027 83.9715 27.6451 84.2054 27.6092L83.9899 29.2801C83.7596 29.3088 83.5061 29.286 83.2293 29.2117C82.949 29.1444 82.6723 29.0434 82.3994 28.9085ZM81.2893 23.1616L82.06 21.6447L86.2945 23.7369L85.5237 25.2537L81.2893 23.1616Z" fill="white"/>
<path d="M92.2218 36.4909C91.6962 35.9295 91.3421 35.3409 91.1593 34.7249C90.988 34.1094 90.9778 33.5141 91.1289 32.9391C91.2914 32.3645 91.6105 31.8579 92.0864 31.4193C92.5622 30.9807 93.0892 30.702 93.6674 30.583C94.2569 30.4645 94.8406 30.5093 95.4185 30.7174C96.0023 30.9201 96.5269 31.27 96.9923 31.767C97.4303 32.2348 97.7331 32.751 97.9006 33.3156C98.0739 33.8748 98.0823 34.439 97.9258 35.0082C97.7692 35.5774 97.4265 36.1056 96.8978 36.593C96.8391 36.6471 96.7688 36.7065 96.6869 36.771C96.6051 36.8356 96.5291 36.8947 96.459 36.9484L92.9358 33.1856L93.817 32.3734L96.5107 35.2503L95.6727 34.8462C95.8955 34.6517 96.0452 34.4375 96.1217 34.2036C96.2036 33.9755 96.2175 33.7449 96.1633 33.5116C96.1145 33.2842 95.9971 33.0711 95.8109 32.8723C95.6248 32.6735 95.4164 32.5387 95.186 32.4679C94.961 32.4029 94.7279 32.4053 94.4868 32.475C94.2515 32.5394 94.0252 32.6717 93.8078 32.8721L93.5523 33.1076C93.3173 33.3242 93.1584 33.5578 93.0756 33.8084C92.9983 34.0648 92.9976 34.327 93.0733 34.5949C93.1549 34.8574 93.3134 35.1143 93.5489 35.3658C93.7679 35.5997 93.9863 35.7687 94.2043 35.8729C94.4335 35.9775 94.6953 36.0467 94.9896 36.0804L94.8944 37.8022C94.4283 37.807 93.9716 37.7051 93.5244 37.4963C93.0831 37.2821 92.6489 36.947 92.2218 36.4909ZM96.6481 30.4175L99.088 30.3583L100.648 32.0248L97.765 31.6104L96.6481 30.4175Z" fill="white"/>
<path d="M39.7366 82.3801C39.9776 82.6713 40.1317 82.9798 40.1989 83.3057C40.2746 83.6323 40.2434 83.9616 40.1054 84.2936C39.9712 84.6302 39.7099 84.9591 39.3214 85.2801L37.1707 87.0574L36.0803 85.7401L38.0159 84.1406C38.2842 83.9189 38.4364 83.7075 38.4725 83.5065C38.5132 83.3016 38.4608 83.1113 38.3155 82.9357C38.2122 82.8109 38.0884 82.7225 37.9441 82.6705C37.7998 82.6185 37.6422 82.6164 37.4714 82.6641C37.3053 82.708 37.1251 82.8102 36.9308 82.9708L35.0646 84.513L33.9742 83.1957L35.9098 81.5961C36.1781 81.3745 36.3303 81.1631 36.3663 80.962C36.4109 80.7618 36.3585 80.5715 36.2093 80.3913C36.1022 80.2618 35.9765 80.1711 35.8322 80.1191C35.6917 80.0718 35.5342 80.0696 35.3596 80.1127C35.1934 80.1567 35.0132 80.2589 34.819 80.4194L32.9527 81.9616L31.8624 80.6443L35.6226 77.537L36.6613 78.7919L35.6137 79.6576L35.7054 79.1614C36.0885 79.0784 36.4465 79.1017 36.7796 79.2312C37.1173 79.3568 37.4085 79.5676 37.6534 79.8634C37.9327 80.2008 38.0897 80.5692 38.1243 80.9687C38.1674 81.3689 38.0427 81.7639 37.75 82.1537L37.4844 81.6493C37.9006 81.5311 38.3052 81.5353 38.6982 81.662C39.0997 81.7895 39.4458 82.0288 39.7366 82.3801Z" fill="#006FBF"/>
<path d="M41.5188 90.3225L42.073 89.6019L42.1171 89.3526L43.1376 88.0257C43.3021 87.8116 43.3615 87.5966 43.3157 87.3806C43.2783 87.1635 43.1164 86.9459 42.8301 86.7277C42.6439 86.5859 42.4317 86.4731 42.1932 86.3895C41.9584 86.3011 41.734 86.2583 41.5199 86.2611L41.7695 84.9917C42.0988 85.0163 42.4454 85.1069 42.8093 85.2636C43.1817 85.4191 43.5206 85.6132 43.826 85.846C44.456 86.326 44.8312 86.842 44.9517 87.394C45.0806 87.9448 44.9091 88.527 44.4373 89.1406L42.7859 91.288L41.5188 90.3225ZM40.3241 89.5139C40.0139 89.2775 39.7917 89.0252 39.6574 88.7569C39.5231 88.4886 39.4682 88.2204 39.4926 87.9524C39.5219 87.688 39.6224 87.4441 39.7943 87.2205C39.9772 86.9827 40.1942 86.8237 40.4451 86.7434C40.7046 86.6619 40.9955 86.6724 41.3179 86.7748C41.644 86.8724 42.0075 87.074 42.4083 87.3794L43.3246 88.0777L42.7815 88.784L42.0513 88.2276C41.8318 88.0603 41.6492 87.9778 41.5037 87.98C41.3629 87.9859 41.2468 88.0483 41.1554 88.1672C41.0639 88.2861 41.0361 88.4158 41.0719 88.5562C41.1077 88.6966 41.2044 88.8269 41.3619 88.9469C41.5098 89.0596 41.6709 89.1258 41.845 89.1453C42.0276 89.1638 42.2061 89.1187 42.3804 89.0102L42.1825 89.6514C41.9061 89.8632 41.6098 89.9581 41.2938 89.936C40.9862 89.9128 40.6629 89.7721 40.3241 89.5139Z" fill="#006FBF"/>
<path d="M47.2688 93.8997C46.8706 93.7032 46.5529 93.4327 46.3156 93.0882C46.0863 92.7409 45.9578 92.353 45.9299 91.9244C45.9046 91.4904 46.0084 91.0398 46.241 90.5725C46.471 90.1106 46.7658 89.761 47.1253 89.5235C47.4875 89.2807 47.8754 89.1476 48.2892 89.1243C48.7084 89.1036 49.117 89.1915 49.5152 89.388C49.8919 89.5738 50.1692 89.811 50.3473 90.0995C50.5307 90.3908 50.6068 90.736 50.5755 91.1354C50.5442 91.5348 50.4015 91.9896 50.1475 92.4999C49.888 93.0208 49.6109 93.416 49.3159 93.6853C49.021 93.9546 48.7043 94.1061 48.3658 94.1398C48.0273 94.1735 47.6616 94.0934 47.2688 93.8997ZM48.1974 92.8424C48.3696 92.9273 48.543 92.9627 48.7176 92.9485C48.8976 92.937 49.0668 92.8732 49.225 92.7573C49.386 92.636 49.5213 92.4652 49.6309 92.245C49.7405 92.0248 49.7925 91.8196 49.7866 91.6294C49.7835 91.4338 49.732 91.2612 49.6322 91.1116C49.5378 90.9647 49.4045 90.8487 49.2323 90.7638C49.0548 90.6762 48.876 90.6382 48.696 90.6497C48.5213 90.6639 48.3549 90.729 48.1966 90.8449C48.041 90.9555 47.9084 91.1209 47.7987 91.3411C47.6891 91.5613 47.6345 91.7719 47.635 91.9728C47.6382 92.1684 47.6869 92.3397 47.7814 92.4866C47.8811 92.6362 48.0198 92.7548 48.1974 92.8424ZM48.5882 94.4603L48.9613 93.711L49.6874 92.2729L50.3247 90.7909L51.492 88.4465L53.0256 89.203L50.0491 95.181L48.5882 94.4603Z" fill="#006FBF"/>
<path d="M55.2795 96.9071C54.7236 96.7562 54.2658 96.5201 53.9062 96.1987C53.554 95.8731 53.3122 95.4966 53.1809 95.0693C53.0569 94.6378 53.0594 94.1877 53.1884 93.7192C53.3173 93.2506 53.542 92.8639 53.8623 92.5592C54.1901 92.2502 54.5787 92.0479 55.0281 91.9523C55.4792 91.8509 55.9508 91.867 56.443 92.0006C56.9063 92.1263 57.3027 92.3364 57.6324 92.6311C57.9636 92.9199 58.192 93.2772 58.3175 93.7029C58.4431 94.1286 58.4342 94.6018 58.2909 95.1225C58.275 95.1803 58.2538 95.2461 58.2273 95.3197C58.2008 95.3933 58.1759 95.4612 58.1526 95.5232L54.4264 94.5121L54.6652 93.6443L57.5141 94.4174L56.8219 94.4907C56.8866 94.2782 56.897 94.0821 56.8531 93.9023C56.815 93.7241 56.7327 93.5712 56.606 93.4436C56.4851 93.3175 56.3262 93.2278 56.1293 93.1744C55.9325 93.1209 55.7468 93.1172 55.5724 93.1631C55.4037 93.2106 55.2566 93.3043 55.1309 93.4443C55.0069 93.5785 54.9154 93.7526 54.8565 93.9667L54.7872 94.2183C54.7236 94.4497 54.715 94.6619 54.7614 94.8548C54.8137 95.0492 54.9169 95.2171 55.0709 95.3584C55.2265 95.4939 55.4288 95.5954 55.6778 95.663C55.9095 95.7258 56.1151 95.7474 56.2947 95.7278C56.4818 95.704 56.6755 95.6446 56.8758 95.5498L57.496 96.6879C57.2017 96.8754 56.8713 96.9909 56.5046 97.0344C56.1395 97.0721 55.7311 97.0296 55.2795 96.9071Z" fill="#006FBF"/>
<path d="M65.6416 98.1803L65.5294 93.3036L67.2389 93.2627L67.3511 98.1394L65.6416 98.1803ZM66.3717 92.7433C66.0598 92.7507 65.8059 92.6698 65.6099 92.5004C65.414 92.3311 65.313 92.1174 65.3071 91.8595C65.3012 91.6015 65.3922 91.3833 65.5801 91.2048C65.7681 91.0262 66.018 90.9332 66.3299 90.9257C66.6418 90.9183 66.8957 90.9962 67.0915 91.1596C67.2872 91.3169 67.388 91.5246 67.3939 91.7825C67.4001 92.0524 67.3093 92.2797 67.1215 92.4642C66.9396 92.6426 66.6896 92.7356 66.3717 92.7433Z" fill="white"/>
<path d="M73.3439 92.3876C73.7153 92.3172 74.0657 92.3301 74.3952 92.4265C74.7235 92.5169 75.0026 92.7021 75.2323 92.9822C75.468 93.2612 75.6324 93.6484 75.7256 94.1437L76.2413 96.8856L74.5613 97.2041L74.0971 94.7364C74.0327 94.3944 73.9154 94.1602 73.7451 94.0337C73.5796 93.9002 73.373 93.8569 73.1254 93.9038C72.9486 93.9374 72.7942 94.0094 72.6624 94.1199C72.5294 94.2245 72.4372 94.3672 72.3857 94.5479C72.3343 94.7287 72.3335 94.9517 72.3834 95.2171L72.8193 97.5344L71.1392 97.853L70.2375 93.059L71.8379 92.7556L72.0942 94.1177L71.7098 93.7784C71.8271 93.3958 72.0288 93.0889 72.315 92.8575C72.6001 92.6202 72.943 92.4636 73.3439 92.3876Z" fill="white"/>
<path d="M84.1509 93.747L81.8775 89.4923C81.6004 88.9737 81.5329 88.4781 81.675 88.0056C81.8195 87.525 82.1794 87.1291 82.7546 86.8179C82.9393 86.718 83.1313 86.638 83.3305 86.578C83.5297 86.518 83.7098 86.4922 83.8708 86.5006L84.0671 87.7655C83.984 87.7628 83.8972 87.7722 83.8067 87.7938C83.7134 87.8102 83.6272 87.8398 83.548 87.8826C83.3897 87.9683 83.2911 88.083 83.2523 88.2268C83.2159 88.3624 83.2486 88.5255 83.3504 88.716L83.5158 89.0256L83.8905 89.6313L85.6549 92.9334L84.1509 93.747ZM81.9138 91.0689L81.3115 89.9417L84.4225 88.2588L85.0248 89.386L81.9138 91.0689Z" fill="#FF0000"/>
<path d="M89.1318 90.7759L86.203 86.875L87.5004 85.89L88.3542 87.0272L87.9175 86.8503C87.8125 86.4705 87.8349 86.1107 87.9849 85.7709C88.1313 85.4262 88.3885 85.1142 88.7565 84.8349L89.6805 86.0656C89.6112 86.1032 89.5526 86.1401 89.5048 86.1764C89.4582 86.2042 89.4086 86.2381 89.3561 86.278C89.0789 86.4884 88.9119 86.7357 88.8551 87.0198C88.7948 87.2992 88.8925 87.6092 89.1483 87.9499L90.4938 89.742L89.1318 90.7759Z" fill="#FF0000"/>
<path d="M96.2317 84.4245L95.5685 83.8028L95.3247 83.7347L94.1033 82.5899C93.9064 82.4052 93.6982 82.3252 93.4787 82.3498C93.259 82.3659 93.0266 82.5058 92.7816 82.7695C92.6223 82.9409 92.4894 83.1412 92.383 83.3704C92.2722 83.5954 92.2077 83.8146 92.1897 84.028L90.9505 83.6559C91.0071 83.3306 91.131 82.9945 91.3224 82.6476C91.5134 82.2921 91.7396 81.9737 92.001 81.6924C92.5401 81.1122 93.0902 80.789 93.6513 80.7229C94.2121 80.6482 94.7749 80.8755 95.3396 81.4049L97.316 83.2575L96.2317 84.4245ZM95.3106 85.5348C95.0451 85.8205 94.7723 86.0171 94.4922 86.1246C94.2121 86.2322 93.9399 86.2607 93.6755 86.2103C93.4153 86.1554 93.1822 86.0316 92.9765 85.8387C92.7576 85.6336 92.6204 85.4022 92.565 85.1446C92.5092 84.8785 92.5479 84.5899 92.6812 84.279C92.8101 83.964 93.0461 83.6219 93.3892 83.2527L94.1733 82.4087L94.8234 83.0181L94.1985 83.6906C94.0107 83.8928 93.9108 84.0664 93.8988 84.2115C93.891 84.3521 93.9418 84.4738 94.0512 84.5763C94.1606 84.6789 94.287 84.7192 94.4302 84.6973C94.5735 84.6753 94.7125 84.5918 94.8473 84.4468C94.9739 84.3105 95.0554 84.1567 95.0919 83.9852C95.128 83.8053 95.1006 83.6233 95.0095 83.4392L95.6284 83.6987C95.8123 83.9944 95.8779 84.2984 95.8251 84.6108C95.772 84.9147 95.6005 85.2227 95.3106 85.5348Z" fill="#FF0000"/>
<path d="M96.634 75.4796C96.8334 75.1585 97.0799 74.9093 97.3736 74.7322C97.6621 74.5519 97.987 74.4722 98.3483 74.4932C98.7128 74.5092 99.1086 74.6509 99.5357 74.9185L101.9 76.3996L100.998 77.8523L98.8699 76.5192C98.575 76.3345 98.3235 76.2619 98.1153 76.3014C97.9052 76.3326 97.7337 76.4552 97.6007 76.6693C97.5058 76.8222 97.4543 76.9847 97.4464 77.1567C97.4333 77.3256 97.4758 77.4902 97.5739 77.6508C97.6719 77.8113 97.8354 77.9633 98.0642 78.1066L100.062 79.3584L99.1603 80.8111L95.0265 78.2214L95.8859 76.8376L97.0605 77.5734L96.551 77.626C96.3492 77.28 96.26 76.9233 96.2835 76.5557C96.3019 76.1849 96.4187 75.8262 96.634 75.4796Z" fill="#FF0000"/>
<path d="M104.099 71.4262C103.908 71.9312 103.636 72.3442 103.283 72.6651C102.933 72.9805 102.539 73.1826 102.101 73.2716C101.657 73.3584 101.206 73.3136 100.746 73.1373C100.287 72.9609 99.9235 72.6928 99.6557 72.3329C99.3878 71.9729 99.2302 71.559 99.1829 71.0909C99.1322 70.6151 99.2024 70.1247 99.3937 69.6197C99.5892 69.1035 99.8674 68.6994 100.228 68.4073C100.589 68.1152 100.998 67.967 101.455 67.9626L101.617 69.4418C101.364 69.4666 101.16 69.5394 101.005 69.6599C100.845 69.7783 100.729 69.9301 100.659 70.1152C100.589 70.3004 100.567 70.4849 100.594 70.6686C100.621 70.8524 100.698 71.0203 100.827 71.1725C100.952 71.3169 101.129 71.4331 101.358 71.5213C101.594 71.6116 101.809 71.6459 102.003 71.6241C102.199 71.5967 102.368 71.5234 102.51 71.4041C102.651 71.2849 102.757 71.1327 102.827 70.9475C102.897 70.7624 102.914 70.5729 102.879 70.3793C102.837 70.1834 102.73 69.9914 102.558 69.803L103.657 68.8078C103.995 69.1176 104.202 69.5024 104.278 69.9622C104.354 70.422 104.294 70.91 104.099 71.4262Z" fill="#FF0000"/>
<path d="M106.065 64.013C105.965 64.5802 105.77 65.0572 105.482 65.444C105.189 65.8239 104.836 66.0983 104.422 66.2672C104.004 66.4291 103.555 66.4668 103.077 66.3801C102.599 66.2935 102.193 66.1042 101.861 65.8123C101.524 65.5134 101.288 65.1444 101.153 64.7052C101.012 64.265 100.985 63.7938 101.075 63.2916C101.158 62.819 101.332 62.4054 101.596 62.0508C101.854 61.6951 102.19 61.4358 102.603 61.2728C103.015 61.1098 103.488 61.0764 104.019 61.1727C104.078 61.1834 104.145 61.1986 104.221 61.2184C104.297 61.2383 104.366 61.257 104.43 61.2747L103.756 65.0763L102.87 64.9159L103.386 62.0092L103.521 62.6922C103.303 62.6467 103.107 62.6538 102.932 62.7136C102.758 62.7674 102.613 62.8631 102.497 63.0006C102.382 63.1323 102.307 63.2985 102.272 63.4994C102.236 63.7003 102.249 63.8855 102.31 64.0552C102.373 64.2189 102.479 64.3571 102.63 64.4698C102.774 64.5814 102.956 64.657 103.174 64.6965L103.431 64.7431C103.667 64.7859 103.879 64.7755 104.067 64.712C104.256 64.6426 104.414 64.5249 104.541 64.3589C104.662 64.1918 104.745 63.9812 104.791 63.7272C104.832 63.4909 104.836 63.2841 104.8 63.1069C104.76 62.9228 104.683 62.7351 104.571 62.544L105.649 61.8248C105.862 62.1012 106.007 62.42 106.083 62.7814C106.153 63.1417 106.147 63.5522 106.065 64.013Z" fill="#FF0000"/>
<defs>
<filter id="filter0_d_155_6784" x="14.249" y="12.2314" width="100.752" height="100.739" filterUnits="userSpaceOnUse" color-interpolation-filters="sRGB">
<feFlood flood-opacity="0" result="BackgroundImageFix"/>
<feColorMatrix in="SourceAlpha" type="matrix" values="0 0 0 0 0 0 0 0 0 0 0 0 0 0 0 0 0 0 127 0" result="hardAlpha"/>
<feOffset dy="4"/>
<feGaussianBlur stdDeviation="2"/>
<feComposite in2="hardAlpha" operator="out"/>
<feColorMatrix type="matrix" values="0 0 0 0 0 0 0 0 0 0 0 0 0 0 0 0 0 0 0.25 0"/>
<feBlend mode="normal" in2="BackgroundImageFix" result="effect1_dropShadow_155_6784"/>
<feBlend mode="normal" in="SourceGraphic" in2="effect1_dropShadow_155_6784" result="shape"/>
</filter>
</defs>
</svg>
